<?xml version="1.0" standalone="no"?>
<!DOCTYPE svg PUBLIC "-//W3C//DTD SVG 20010904//EN"
 "http://www.w3.org/TR/2001/REC-SVG-20010904/DTD/svg10.dtd">
<svg version="1.0" xmlns="http://www.w3.org/2000/svg"
 width="1200.000000pt" height="1200.000000pt" viewBox="0 0 1200.000000 1200.000000"
 preserveAspectRatio="xMidYMid meet">

<g transform="translate(0.000000,1200.000000) scale(0.100000,-0.100000)"
fill="#000000" stroke="none">
<path d="M5690 11994 c-25 -2 -108 -8 -185 -14 -1143 -89 -2267 -527 -3186
-1242 -378 -294 -763 -679 -1057 -1057 -654 -841 -1074 -1845 -1211 -2896 -38
-293 -46 -425 -46 -785 0 -360 8 -492 46 -785 137 -1051 557 -2055 1211 -2896
294 -378 679 -763 1057 -1057 841 -654 1845 -1074 2896 -1211 293 -38 425 -46
785 -46 360 0 492 8 785 46 1051 137 2055 557 2896 1211 378 294 763 679 1057
1057 654 841 1074 1845 1211 2896 38 293 46 425 46 785 0 360 -8 492 -46 785
-137 1051 -557 2055 -1211 2896 -294 378 -679 763 -1057 1057 -696 541 -1502
922 -2361 1116 -439 99 -767 136 -1250 141 -184 1 -355 1 -380 -1z m1921
-3809 c178 -63 220 -262 103 -486 -79 -151 -263 -287 -428 -315 -168 -30 -309
30 -364 155 -10 23 -16 65 -16 116 1 89 29 177 89 270 65 103 216 215 343 256
72 23 213 25 273 4z m-1107 -395 c130 -49 177 -176 122 -331 -42 -118 -130
-220 -248 -284 -119 -65 -121 -65 -658 -65 l-486 0 -21 -62 c-12 -35 -50 -146
-86 -248 -35 -102 -68 -195 -71 -207 l-7 -23 323 0 c348 0 439 -8 502 -43 59
-32 98 -94 104 -161 17 -211 -188 -444 -429 -485 -39 -7 -199 -11 -400 -11
l-334 0 -53 -145 c-29 -79 -89 -251 -133 -382 -91 -270 -126 -341 -213 -427
-117 -116 -242 -171 -375 -164 -129 6 -213 66 -242 172 -25 93 -14 133 249
906 138 404 318 934 400 1177 83 243 163 468 178 500 43 88 163 202 267 252
45 22 93 42 107 44 14 2 345 5 737 6 694 1 714 0 767 -19z m695 -711 c64 -14
125 -58 153 -111 18 -34 22 -59 22 -123 -1 -78 -7 -100 -273 -880 -323 -948
-328 -961 -396 -1092 -67 -131 -124 -215 -225 -335 -282 -339 -775 -586 -1022
-514 -139 40 -177 192 -93 363 49 100 106 149 308 267 194 114 277 197 360
361 20 39 160 437 312 885 152 448 292 848 312 887 64 131 207 246 353 285 77
20 121 22 189 7z m711 -1556 c91 -40 142 -117 148 -225 12 -187 -128 -388
-345 -495 -84 -42 -102 -47 -177 -51 -139 -7 -230 38 -282 140 -49 96 -42 200
23 331 70 140 245 275 410 317 59 14 172 6 223 -17z"/>
</g>
</svg>
